<?xml version="1.0" encoding="utf-8"?>
<!-- Generator: Adobe Illustrator 16.0.4, SVG Export Plug-In . SVG Version: 6.00 Build 0)  -->
<!DOCTYPE svg PUBLIC "-//W3C//DTD SVG 1.1//EN" "http://www.w3.org/Graphics/SVG/1.1/DTD/svg11.dtd">
<svg version="1.1" id="Layer_1" xmlns="http://www.w3.org/2000/svg" xmlns:xlink="http://www.w3.org/1999/xlink" x="0px" y="0px"
	 width="50.667px" height="53px" viewBox="0 0 50.667 53" enable-background="new 0 0 50.667 53" xml:space="preserve">
<g opacity="0.42">
	<g>
		<path fill="#010101" d="M25.13,50.307c-4.084,0-7.407-3.323-7.407-7.408c0-0.002,0-0.004,0-0.006H2.274l5.17-8.562
			c1.243-2.06,2.614-5.048,2.829-6.774L11.5,13.875c0.386-3.111,3.016-6.065,5.993-6.795l2.559-0.627
			c0.765-2.083,2.766-3.559,5.079-3.559c2.312,0,4.314,1.477,5.08,3.561l2.555,0.625c2.979,0.729,5.609,3.684,5.99,6.726
			l1.238,13.821c0.207,1.654,1.58,4.644,2.824,6.704l5.17,8.562H32.54c0,0.002,0,0.004,0,0.006
			C32.54,46.983,29.215,50.307,25.13,50.307z M21.042,42.73c0.574,1.051,0.5,3.576,4.088,3.576c3.412,0,4.208-2.516,4.787-3.576
			H21.042z M9.362,38.893h31.537l-1.506-2.494c-0.301-0.499-2.958-4.976-3.377-8.348l-1.238-13.819
			c-0.169-1.339-1.585-2.93-2.964-3.268l-5.181-1.266l-0.095-1.465c-0.049-0.751-0.667-1.339-1.409-1.339
			c-0.741,0-1.359,0.587-1.408,1.336l-0.094,1.464l-5.183,1.27c-1.378,0.338-2.793,1.928-2.968,3.336L14.25,27.982
			c-0.428,3.445-3.081,7.917-3.381,8.416L9.362,38.893z"/>
	</g>
</g>
</svg>
