<?xml version="1.0" encoding="utf-8"?>
<!-- Generator: Adobe Illustrator 16.0.4, SVG Export Plug-In . SVG Version: 6.00 Build 0)  -->
<!DOCTYPE svg PUBLIC "-//W3C//DTD SVG 1.1//EN" "http://www.w3.org/Graphics/SVG/1.1/DTD/svg11.dtd">
<svg version="1.1" id="Layer_1" xmlns="http://www.w3.org/2000/svg" xmlns:xlink="http://www.w3.org/1999/xlink" x="0px" y="0px"
	 width="54px" height="36px" viewBox="0 0 54 36" enable-background="new 0 0 54 36" xml:space="preserve">
<g>
	<path fill="none" stroke="#000000" stroke-width="2.7" stroke-miterlimit="10" d="M45.722,21.475
		c3.483,1.623,5.9,5.147,5.915,9.243l-9.293,0.034"/>
	<path fill="none" stroke="#000000" stroke-width="2.7" stroke-miterlimit="10" d="M7.948,21.193
		c-3.301,1.727-5.538,5.198-5.498,9.18l9.749-0.097"/>
	<path fill="none" stroke="#000000" stroke-width="2.7" stroke-miterlimit="10" d="M35.693,18.921
		c1.278,1.971,3.526,3.241,6.045,3.157c3.825-0.123,6.824-3.327,6.7-7.151c-0.125-3.827-3.33-6.824-7.152-6.7
		c-1.271,0.042-2.45,0.422-3.455,1.052"/>
	<path fill="none" stroke="#000000" stroke-width="2.7" stroke-miterlimit="10" d="M17.047,10.424
		c-1.232-0.953-2.789-1.499-4.467-1.443c-3.825,0.121-6.824,3.326-6.699,7.151c0.125,3.825,3.327,6.824,7.153,6.701
		c2.641-0.088,4.89-1.645,5.988-3.858"/>
	<path fill="none" stroke="#000000" stroke-width="2.7" stroke-miterlimit="10" d="M20.994,20.259
		c-5.422,2.383-9.203,7.805-9.196,14.107l30.781-0.033c-0.005-5.955-3.393-11.114-8.342-13.668"/>
	<circle fill="none" stroke="#000000" stroke-width="2.7" stroke-miterlimit="10" cx="27.424" cy="12.314" r="10.419"/>
</g>
</svg>
