<?xml version="1.0" encoding="UTF-8" standalone="no"?>
<svg width="36px" height="36px" viewBox="0 0 36 36" version="1.1" xmlns="http://www.w3.org/2000/svg" xmlns:xlink="http://www.w3.org/1999/xlink" xmlns:sketch="http://www.bohemiancoding.com/sketch/ns">
    <!-- Generator: Sketch 3.0.3 (7891) - http://www.bohemiancoding.com/sketch -->
    <title>Artboard 1</title>
    <desc>Created with Sketch.</desc>
    <defs></defs>
    <g id="Page-1" stroke="none" stroke-width="1" fill="none" fill-rule="evenodd" sketch:type="MSPage">
        <g id="Artboard-1" sketch:type="MSArtboardGroup" stroke-width="2.7" stroke="#000000">
            <g id="styleguide-lisa-06" sketch:type="MSLayerGroup" transform="translate(1.000000, 7.000000)">
                <g id="Group" sketch:type="MSShapeGroup">
                    <path d="M26.596,12.308 C28.7,13.288 30.16,15.418 30.169,17.893 L24.554,17.914" id="Shape"></path>
                    <path d="M3.772,12.138 C1.777,13.181 0.426,15.279 0.45,17.685 L6.34,17.626" id="Shape"></path>
                    <path d="M20.536,10.765 C21.308,11.955 22.667,12.723 24.188,12.673 C26.499,12.598 28.311,10.662 28.236,8.352 C28.16,6.04 26.225,4.228 23.915,4.303 C23.147,4.328 22.435,4.559 21.828,4.939" id="Shape"></path>
                    <path d="M9.27,5.631 C8.525,5.055 7.585,4.725 6.571,4.758 C4.26,4.832 2.448,6.768 2.523,9.079 C2.599,11.391 4.533,13.203 6.845,13.128 C8.441,13.075 9.8,12.135 10.463,10.797" id="Shape"></path>
                    <path d="M11.655,11.572 C8.379,13.012 6.094,16.289 6.098,20.096 L24.696,20.076 C24.693,16.478 22.646,13.36 19.655,11.817" id="Shape"></path>
                    <circle id="Oval" cx="15.295" cy="6.295" r="6.295"></circle>
                </g>
            </g>
        </g>
    </g>
</svg>