<?xml version="1.0" encoding="utf-8"?>
<!-- Generator: Adobe Illustrator 16.0.0, SVG Export Plug-In . SVG Version: 6.00 Build 0)  -->
<!DOCTYPE svg PUBLIC "-//W3C//DTD SVG 1.1//EN" "http://www.w3.org/Graphics/SVG/1.1/DTD/svg11.dtd">
<svg version="1.1" id="Layer_1" xmlns="http://www.w3.org/2000/svg" xmlns:xlink="http://www.w3.org/1999/xlink" x="0px" y="0px"
	 width="21.333px" height="21.828px" viewBox="0 0 21.333 21.828" enable-background="new 0 0 21.333 21.828" xml:space="preserve">
<g>
	<g>
		<path d="M0.022,21.828l-0.001-1.174c-0.005-4.207,2.481-8.021,6.332-9.714l0.946,2.149c-2.635,1.159-4.449,3.593-4.847,6.389
			l16.33-0.018c-0.376-2.62-1.985-4.912-4.389-6.152l1.077-2.087c3.539,1.828,5.74,5.432,5.743,9.413l0.002,1.173L0.022,21.828z"/>
	</g>
	<g>
		<path d="M10.757,14.704c-4.098,0-7.411-3.209-7.544-7.306c-0.066-2.016,0.656-3.938,2.036-5.41
			c1.379-1.472,3.249-2.319,5.265-2.385l0.25-0.004c4.097,0,7.411,3.209,7.546,7.305c0.135,4.164-3.141,7.661-7.304,7.796
			L10.757,14.704z M10.764,1.948L10.59,1.951C9.201,1.996,7.913,2.58,6.962,3.594C6.013,4.608,5.514,5.932,5.56,7.322
			c0.091,2.823,2.375,5.035,5.197,5.035l0.173-0.003c2.868-0.093,5.125-2.503,5.031-5.372C15.87,4.16,13.587,1.948,10.764,1.948z"/>
	</g>
</g>
</svg>
