<?xml version="1.0" encoding="utf-8"?>
<!-- Generator: Adobe Illustrator 16.0.4, SVG Export Plug-In . SVG Version: 6.00 Build 0)  -->
<!DOCTYPE svg PUBLIC "-//W3C//DTD SVG 1.1//EN" "http://www.w3.org/Graphics/SVG/1.1/DTD/svg11.dtd">
<svg version="1.1" id="Layer_1" xmlns="http://www.w3.org/2000/svg" xmlns:xlink="http://www.w3.org/1999/xlink" x="0px" y="0px"
	 width="36px" height="36px" viewBox="0 0 36 36" enable-background="new 0 0 36 36" xml:space="preserve">
<g>
	<path d="M27.653,1.982l-4.915,4.915l4.915,4.918l4.919-4.918c0,0,0.982,0.984,0,3.934c-0.984,2.95-1.968,3.933-3.442,5.408
		c-2.458,2.458-5.408-1.476-7.376,0.493C20.988,17.499,8.973,30.497,7.007,32.466c-2.951,2.947-4.918,0.982-5.409,0.489
		c-0.492-0.489-2.458-2.458,0.49-5.409c1.966-1.966,14.583-13.6,15.735-14.748c1.965-1.967-1.969-4.916,0.493-7.376
		c1.472-1.474,2.454-2.456,5.406-3.439C26.672,0.998,27.653,1.982,27.653,1.982z"/>
	<path d="M12.699,15.838L4.3,7.438L3.255,7.438L0.644,3.78l2.092-2.092l3.658,2.61v1.046l8.472,8.475
		C14.197,14.444,13.461,15.129,12.699,15.838z"/>
	<path d="M32.029,33.074c-0.47,0.468-2.342,2.339-5.48-0.799c-2.367-2.368-6.522-6.522-8.869-8.869
		c0.494-0.535,0.98-1.064,1.453-1.575c1.161-1.259,2.241-2.426,3.042-3.291c2.292,2.294,6.647,6.648,9.053,9.055
		C34.367,30.733,32.495,32.604,32.029,33.074z"/>
</g>
</svg>
