<?xml version="1.0" encoding="utf-8"?>
<!-- Generator: Adobe Illustrator 16.0.4, SVG Export Plug-In . SVG Version: 6.00 Build 0)  -->
<!DOCTYPE svg PUBLIC "-//W3C//DTD SVG 1.1//EN" "http://www.w3.org/Graphics/SVG/1.1/DTD/svg11.dtd">
<svg version="1.1" id="Layer_1" xmlns="http://www.w3.org/2000/svg" xmlns:xlink="http://www.w3.org/1999/xlink" x="0px" y="0px"
	 width="30px" height="30.375px" viewBox="0 0 30 30.375" enable-background="new 0 0 30 30.375" xml:space="preserve">
<path fill="#414142" d="M24.301,1.862l-4.245,4.246l4.245,4.247l4.248-4.247c0,0,0.849,0.85,0,3.397
	c-0.85,2.548-1.699,3.397-2.973,4.671c-2.123,2.123-4.671-1.274-6.371,0.424C18.544,15.264,8.166,26.49,6.468,28.189
	c-2.548,2.547-4.247,0.85-4.671,0.424c-0.425-0.424-2.123-2.123,0.424-4.672c1.698-1.697,12.595-11.746,13.59-12.738
	c1.697-1.698-1.7-4.246,0.426-6.37c1.271-1.273,2.119-2.123,4.669-2.972C23.453,1.013,24.301,1.862,24.301,1.862z"/>
<path fill="#414142" d="M11.385,13.829L4.131,6.574l-0.903,0L0.973,3.416l1.807-1.807l3.159,2.255v0.903l7.316,7.319
	C12.679,12.625,12.043,13.216,11.385,13.829z"/>
<path fill="#414142" d="M28.079,28.717c-0.406,0.402-2.022,2.02-4.732-0.691c-2.045-2.045-5.633-5.633-7.66-7.659
	c0.427-0.462,0.847-0.919,1.255-1.36c1.004-1.088,1.936-2.096,2.628-2.842c1.979,1.979,5.74,5.743,7.818,7.819
	C30.099,26.695,28.482,28.311,28.079,28.717z"/>
</svg>
