<?xml version="1.0" encoding="utf-8"?>
<!-- Generator: Adobe Illustrator 16.0.4, SVG Export Plug-In . SVG Version: 6.00 Build 0)  -->
<!DOCTYPE svg PUBLIC "-//W3C//DTD SVG 1.1//EN" "http://www.w3.org/Graphics/SVG/1.1/DTD/svg11.dtd">
<svg version="1.1" id="Layer_1" xmlns:sketch="http://www.bohemiancoding.com/sketch/ns"
	 xmlns="http://www.w3.org/2000/svg" xmlns:xlink="http://www.w3.org/1999/xlink" x="0px" y="0px" width="28px" height="31px"
	 viewBox="0 0 28 31" enable-background="new 0 0 28 31" xml:space="preserve">
<title>Untitled</title>
<desc>Created with Sketch.</desc>
<g id="Page-1" sketch:type="MSPage">
	<g id="Alerts-Dark-_x2B_-Alerts-Light" transform="translate(-26.000000, -22.000000)" sketch:type="MSLayerGroup">
		<path id="Alerts-Dark" sketch:type="MSShapeGroup" fill="#FFFDFD" d="M39.973,48.047H26l2.415-4c0.845-1.4,2.042-3.85,2.244-5.471
			l0.893-9.949c0.202-1.623,1.653-3.252,3.239-3.641l2.719-0.666c0.084-1.295,1.148-2.32,2.463-2.32s2.379,1.025,2.463,2.322
			l2.717,0.664c1.588,0.389,3.039,2.018,3.242,3.641l0.891,9.949c0.201,1.621,1.4,4.07,2.246,5.471l2.414,4H39.973L39.973,48.047z
			 M36.088,49.227c-0.006,0.092-0.028,0.178-0.028,0.271c0,2.16,1.751,3.912,3.913,3.912c2.16,0,3.914-1.752,3.914-3.912
			c0-0.094-0.023-0.18-0.029-0.271H36.088L36.088,49.227z"/>
	</g>
</g>
</svg>
