<?xml version="1.0" encoding="utf-8"?>
<!-- Generator: Adobe Illustrator 16.0.0, SVG Export Plug-In . SVG Version: 6.00 Build 0)  -->
<!DOCTYPE svg PUBLIC "-//W3C//DTD SVG 1.1//EN" "http://www.w3.org/Graphics/SVG/1.1/DTD/svg11.dtd">
<svg version="1.1" id="Layer_1" xmlns="http://www.w3.org/2000/svg" xmlns:xlink="http://www.w3.org/1999/xlink" x="0px" y="0px"
	 width="52.496px" height="52.499px" viewBox="0 0 52.496 52.499" enable-background="new 0 0 52.496 52.499" xml:space="preserve">
<g>
	<g>
		<path fill="#CDCDD0" d="M26.248,52.499C11.774,52.499,0,40.723,0,26.249C0,11.775,11.774,0,26.248,0s26.248,11.775,26.248,26.249
			C52.496,40.723,40.722,52.499,26.248,52.499z M26.248,4C13.98,4,4,13.981,4,26.249c0,12.269,9.98,22.25,22.248,22.25
			s22.248-9.981,22.248-22.25C48.496,13.981,38.516,4,26.248,4z"/>
	</g>
	<g>
		<polygon fill="#CDCDD0" points="23.246,40.091 12.412,27.934 15.398,25.273 22.729,33.499 34.41,15.33 37.775,17.493 		"/>
	</g>
</g>
</svg>
