<?xml version="1.0" encoding="utf-8"?>
<!-- Generator: Adobe Illustrator 16.0.4, SVG Export Plug-In . SVG Version: 6.00 Build 0)  -->
<!DOCTYPE svg PUBLIC "-//W3C//DTD SVG 1.1//EN" "http://www.w3.org/Graphics/SVG/1.1/DTD/svg11.dtd">
<svg version="1.1" id="Layer_1" xmlns:sketch="http://www.bohemiancoding.com/sketch/ns"
	 xmlns="http://www.w3.org/2000/svg" xmlns:xlink="http://www.w3.org/1999/xlink" x="0px" y="0px" width="36px" height="24px"
	 viewBox="0 0 36 24" enable-background="new 0 0 36 24" xml:space="preserve">
<title>Untitled</title>
<desc>Created with Sketch.</desc>
<g id="Page-1" sketch:type="MSPage">
	<g id="jobs" transform="translate(-26.000000, -132.000000)" sketch:type="MSLayerGroup">
	</g>
</g>
<g>
	<g>
		<polygon fill="#FFFFFF" points="27,12 27,14 24,14 24,12 13,12 13,14 10,14 10,12 1,12 1,24 35,24 35,12 		"/>
		<path fill="#FFFFFF" d="M31,4V3h-4.422l-2.512-3H13.499l-2.728,3H6v1H0v6h10V8h3v2h11V8h3v2h9V4H31z M14.422,2h8.661l0.744,1
			H13.633L14.422,2z"/>
	</g>
</g>
</svg>
